# xmcd
#
# Track frame offsets:
#	150
#	17400
#	39712
#	65027
#	107255
#	124740
#	146982
#	172961
#	199223
#	225248
#	240190
#
# Disc length: 3592 seconds
#
# Revision: 1
# Processed by: cddbd v1.5.2PL0 Copyright (c) Steve Scherf et al.
# Submitted via: dBpowerAMP V4.0
#
DISCID=890e060b
DTITLE=Greg Koch and Other Bad Men - Live! On The Radio (2006-2007)
DYEAR=2007
DGENRE=Blues
TTITLE0=Manic Depression
TTITLE1=Goin' Down
TTITLE2=Mrs. Buckley
TTITLE3=Stormy Monday
TTITLE4=The Stumble
TTITLE5=Change Is Gonna Come
TTITLE6=Ain't No Fun For Me
TTITLE7=Spanish Castle Magic
TTITLE8=Standing On Shakey Ground
TTITLE9=Cotton
TTITLE10=Don't Change Horses
EXTD=
EXTT0=
EXTT1=
EXTT2=
EXTT3=
EXTT4=
EXTT5=
EXTT6=
EXTT7=
EXTT8=
EXTT9=
EXTT10=
PLAYORDER=
